<?xml version="1.0"?>
<svg xmlns="http://www.w3.org/2000/svg" xmlns:xlink="http://www.w3.org/1999/xlink" xmlns:svgjs="http://svgjs.com/svgjs" version="1.1" width="512" height="512" x="0" y="0" viewBox="0 0 64 64" style="enable-background:new 0 0 512 512" xml:space="preserve" class=""><g><g xmlns="http://www.w3.org/2000/svg"><g><path d="m44 2h-42v52l8 8h34z" fill="#ced6dd" data-original="#ced6dd" style=""/></g><g><path d="m2 54 4.355 4.355c18.515-3.736 32.645-23.51 32.645-47.355 0-3.078-.245-6.083-.695-9h-36.305z" fill="#ebeff1" data-original="#ebeff1" style="" class=""/></g><g><path d="m22 24h40v24h-40z" fill="#e7ebf2" data-original="#e7ebf2" style=""/></g><g><path d="m22 24v20.978c.333.008.665.022 1 .022 15.671 0 28.935-8.829 33.395-21z" fill="#ffffff" data-original="#ffffff" style=""/></g><g><path d="m22 16h40v8h-40z" fill="#dd4e4e" data-original="#56b4f9" style="" class=""/></g><g><path d="m2 54h8v8z" fill="#676b6f" data-original="#676b6f" style=""/></g><g><path d="m6 8h4v22h-4z" fill="#dd4e4e" data-original="#56b4f9" style="" class=""/></g><g><path d="m6 34h4v4h-4z" fill="#dd4e4e" data-original="#56b4f9" style="" class=""/></g><g><path d="m44 63h-34c-.265 0-.52-.105-.707-.293l-8-8c-.188-.187-.293-.442-.293-.707v-52c0-.552.448-1 1-1h42c.552 0 1 .448 1 1v14h-2v-13h-40v50.586l7.414 7.414h32.586v-13h2v14c0 .552-.448 1-1 1z" fill="#000000" data-original="#000000" style="" class=""/></g><g><path d="m11 62h-2v-7h-7v-2h8c.552 0 1 .448 1 1z" fill="#000000" data-original="#000000" style="" class=""/></g><g><path d="m62 49h-40c-.552 0-1-.448-1-1v-32c0-.552.448-1 1-1h40c.552 0 1 .448 1 1v32c0 .552-.448 1-1 1zm-39-2h38v-30h-38z" fill="#000000" data-original="#000000" style="" class=""/></g><g><path d="m33 43h-2c-2.206 0-4-1.794-4-4v-6c0-2.206 1.794-4 4-4h2c2.206 0 4 1.794 4 4h-2c0-1.103-.897-2-2-2h-2c-1.103 0-2 .897-2 2v6c0 1.103.897 2 2 2h2c1.103 0 2-.897 2-2h2c0 2.206-1.794 4-4 4z" fill="#000000" data-original="#000000" style="" class=""/></g><g><path d="m54 43h-2c-1.654 0-3-1.346-3-3h2c0 .551.449 1 1 1h2c.551 0 1-.449 1-1v-.93c0-.335-.167-.646-.445-.832l-4.219-2.812c-.836-.558-1.336-1.491-1.336-2.496v-.93c0-1.654 1.346-3 3-3h2c1.654 0 3 1.346 3 3h-2c0-.551-.449-1-1-1h-2c-.551 0-1 .449-1 1v.93c0 .335.167.646.445.832l4.219 2.812c.836.558 1.336 1.491 1.336 2.496v.93c0 1.654-1.346 3-3 3z" fill="#000000" data-original="#000000" style="" class=""/></g><g><path d="m44 43h-2c-1.654 0-3-1.346-3-3h2c0 .551.449 1 1 1h2c.551 0 1-.449 1-1v-.93c0-.335-.167-.646-.445-.832l-4.219-2.812c-.836-.558-1.336-1.491-1.336-2.496v-.93c0-1.654 1.346-3 3-3h2c1.654 0 3 1.346 3 3h-2c0-.551-.449-1-1-1h-2c-.551 0-1 .449-1 1v.93c0 .335.167.646.445.832l4.219 2.812c.836.558 1.336 1.491 1.336 2.496v.93c0 1.654-1.346 3-3 3z" fill="#000000" data-original="#000000" style="" class=""/></g><g><path d="m22 23h40v2h-40z" fill="#000000" data-original="#000000" style="" class=""/></g><g><path d="m57 19h2v2h-2z" fill="#000000" data-original="#000000" style="" class=""/></g><g><path d="m53 19h2v2h-2z" fill="#000000" data-original="#000000" style="" class=""/></g><g><path d="m49 19h2v2h-2z" fill="#000000" data-original="#000000" style="" class=""/></g><g><path d="m10 31h-4c-.552 0-1-.448-1-1v-22c0-.552.448-1 1-1h4c.552 0 1 .448 1 1v22c0 .552-.448 1-1 1zm-3-2h2v-20h-2z" fill="#000000" data-original="#000000" style="" class=""/></g><g><path d="m10 39h-4c-.552 0-1-.448-1-1v-4c0-.552.448-1 1-1h4c.552 0 1 .448 1 1v4c0 .552-.448 1-1 1zm-3-2h2v-2h-2z" fill="#000000" data-original="#000000" style="" class=""/></g></g></g></svg>
